<mxfile host="65bd71144e">
    <diagram id="J-dPGnQl9cI3L02o_4ir" name="Page-1">
        <mxGraphModel dx="1992" dy="479" grid="1" gridSize="10" guides="1" tooltips="1" connect="1" arrows="1" fold="1" page="1" pageScale="1" pageWidth="26000" pageHeight="6000" math="0" shadow="0">
            <root>
                <mxCell id="0"/>
                <mxCell id="1" parent="0"/>
                <mxCell id="2" value="&lt;font color=&quot;#000000&quot;&gt;Add a date range for event&lt;/font&gt;" style="rounded=0;whiteSpace=wrap;html=1;fillColor=#f9f7ed;strokeColor=#36393d;align=left;verticalAlign=top;" vertex="1" parent="1">
                    <mxGeometry x="890" y="120" width="330" height="220" as="geometry"/>
                </mxCell>
                <mxCell id="3" value="To:" style="rounded=0;whiteSpace=wrap;html=1;fillColor=#f9f7ed;strokeColor=#36393d;horizontal=1;align=left;fontColor=#000000;verticalAlign=top;" vertex="1" parent="1">
                    <mxGeometry x="1030" y="150" width="100" height="60" as="geometry"/>
                </mxCell>
                <mxCell id="4" value="Organizer" style="shape=umlActor;verticalLabelPosition=bottom;verticalAlign=top;html=1;outlineConnect=0;" vertex="1" parent="1">
                    <mxGeometry x="150" y="160" width="30" height="60" as="geometry"/>
                </mxCell>
                <mxCell id="6" value="Participant" style="shape=umlActor;verticalLabelPosition=bottom;verticalAlign=top;html=1;outlineConnect=0;" vertex="1" parent="1">
                    <mxGeometry x="140" y="480" width="30" height="60" as="geometry"/>
                </mxCell>
                <mxCell id="7" value="&lt;font color=&quot;#000000&quot;&gt;From:&lt;/font&gt;" style="rounded=0;whiteSpace=wrap;html=1;fillColor=#f9f7ed;strokeColor=#36393d;horizontal=1;align=left;verticalAlign=top;" vertex="1" parent="1">
                    <mxGeometry x="910" y="150" width="100" height="60" as="geometry"/>
                </mxCell>
                <mxCell id="8" value="&lt;font color=&quot;#000000&quot;&gt;Set Dates&lt;/font&gt;" style="rounded=0;whiteSpace=wrap;html=1;strokeColor=#36393d;fontFamily=Helvetica;fontSize=12;fillColor=#cce5ff;" vertex="1" parent="1">
                    <mxGeometry x="1080" y="270" width="90" height="30" as="geometry"/>
                </mxCell>
                <mxCell id="9" value="" style="rounded=0;whiteSpace=wrap;html=1;fillColor=#cce5ff;strokeColor=#36393d;horizontal=1;align=left;verticalAlign=top;" vertex="1" parent="1">
                    <mxGeometry x="1040" y="180" width="80" height="20" as="geometry"/>
                </mxCell>
                <mxCell id="10" value="" style="rounded=0;whiteSpace=wrap;html=1;fillColor=#cce5ff;strokeColor=#36393d;horizontal=1;align=left;verticalAlign=top;" vertex="1" parent="1">
                    <mxGeometry x="920" y="180" width="80" height="20" as="geometry"/>
                </mxCell>
                <mxCell id="11" value="&lt;font color=&quot;#000000&quot;&gt;What do you want to call your Open Spaces&lt;/font&gt;" style="rounded=0;whiteSpace=wrap;html=1;fillColor=#f9f7ed;strokeColor=#36393d;align=left;verticalAlign=top;" vertex="1" parent="1">
                    <mxGeometry x="450" y="120" width="330" height="220" as="geometry"/>
                </mxCell>
                <mxCell id="13" value="&lt;font color=&quot;#000000&quot;&gt;Name:&lt;/font&gt;" style="rounded=0;whiteSpace=wrap;html=1;fillColor=#f9f7ed;strokeColor=#36393d;horizontal=1;align=left;verticalAlign=top;spacingTop=7;" vertex="1" parent="1">
                    <mxGeometry x="470" y="150" width="240" height="60" as="geometry"/>
                </mxCell>
                <mxCell id="14" value="&lt;font color=&quot;#000000&quot;&gt;Set Name&lt;/font&gt;" style="rounded=0;whiteSpace=wrap;html=1;strokeColor=#36393d;fontFamily=Helvetica;fontSize=12;fillColor=#cce5ff;" vertex="1" parent="1">
                    <mxGeometry x="640" y="270" width="90" height="30" as="geometry"/>
                </mxCell>
                <mxCell id="19" value="&lt;font color=&quot;#000000&quot;&gt;SetName&lt;br&gt;&amp;nbsp;- date: 2024-05-21 16:30:00&lt;br&gt;&amp;nbsp;- name: EM Open Spaces&lt;br&gt;&lt;/font&gt;" style="rounded=0;whiteSpace=wrap;html=1;strokeColor=#36393d;fontFamily=Helvetica;fontSize=12;fillColor=#cce5ff;verticalAlign=top;align=left;" vertex="1" parent="1">
                    <mxGeometry x="640" y="440" width="180" height="70" as="geometry"/>
                </mxCell>
                <mxCell id="20" value="&lt;font color=&quot;#000000&quot;&gt;EM Open Spaces&lt;/font&gt;" style="rounded=0;whiteSpace=wrap;html=1;strokeColor=#36393d;fontFamily=Helvetica;fontSize=12;fillColor=#cce5ff;" vertex="1" parent="1">
                    <mxGeometry x="510" y="160" width="190" height="20" as="geometry"/>
                </mxCell>
            </root>
        </mxGraphModel>
    </diagram>
</mxfile>